<?xml version="1.0" encoding="UTF-8" standalone="no"?>
<svg width="128px" height="128px" viewBox="0 0 111 111" version="1.1" xmlns="http://www.w3.org/2000/svg" xmlns:xlink="http://www.w3.org/1999/xlink" xmlns:sketch="http://www.bohemiancoding.com/sketch/ns">
    <!-- Generator: Sketch 3.3.3 (12081) - http://www.bohemiancoding.com/sketch -->
    <title>Layar Console</title>
    <desc>Created with Sketch.</desc>
    <defs></defs>
    <g id="Page-1" stroke="white" stroke-width="1" fill="white" fill-rule="evenodd" sketch:type="MSPage">
        <g id="Layar-Shark-L" sketch:type="MSArtboardGroup" transform="translate(-9.000000, -8.000000)" stroke-linecap="round" stroke="#000" stroke-linejoin="round">
            <g id="Layar-Console" sketch:type="MSLayerGroup" transform="translate(10.000000, 9.000000)">
                <path d="M54.5,109 C84.5995189,109 109,84.5995189 109,54.5 C109,24.4004811 84.5995189,0 54.5,0 C24.4004811,0 0,24.4004811 0,54.5 C0,84.5995189 24.4004811,109 54.5,109 Z M54.5,101 C80.1812409,101 101,80.1812409 101,54.5 C101,28.8187591 80.1812409,8 54.5,8 C28.8187591,8 8,28.8187591 8,54.5 C8,80.1812409 28.8187591,101 54.5,101 Z" id="Line-Copy" fill="#000" sketch:type="MSShapeGroup"></path>
                <path d="M83.5499992,99.6218751 C75.7517087,104.935866 62.4030348,108.225347 58.2062187,108.115625 C49.7602718,107.894813 39.8468684,107.633261 32.2609377,103.165626 C25.7627425,99.3385982 20.9042969,91.1923826 20.9042969,91.1923826 C20.9042969,91.1923826 50.6142578,84.559082 67.015625,85.6987304 C75.3658948,86.2789487 78.6767578,87.402344 81.4609375,89.3950196 C84.2451172,91.3876951 89.0561523,87.0092774 89.0561523,87.0092774 C89.0561523,87.0092774 86.9238349,97.3228414 83.5499992,99.6218751 Z" id="Path" fill="#000" sketch:type="MSShapeGroup"></path>
                <path d="M71.1519579,76.1238732 C61.882321,75.2712295 36.7244968,79.9999995 36.7244968,79.9999995 C36.7244968,79.9999995 46.7719695,72.8993788 51.4163051,62.8804988 C52.5187417,60.5022945 54.8203081,53.9259261 54.8203081,46.4576023 C54.8203081,33.8171047 51.4163051,23 51.4163051,23 C51.4163051,23 58.5078899,24.2010642 70.0748458,38.8787282 C82.1835586,54.243844 83.5837608,80 83.5837608,80 C83.5837608,80 80.4085437,76.9753163 71.1519579,76.1238732 Z" id="Line-Copy-4" stroke-width="3" fill="#000" sketch:type="MSShapeGroup"></path>
                <path d="M41.5276062,44 L26.5039437,44" id="Line-Copy-2" stroke-width="4" sketch:type="MSShapeGroup"></path>
                <path d="M41.8121937,50 L31.7964187,50" id="Line-Copy-13" stroke-width="4" sketch:type="MSShapeGroup"></path>
                <path d="M39.3813687,56 L24.3577062,56" id="Line-Copy-14" stroke-width="4" sketch:type="MSShapeGroup"></path>
            </g>
        </g>
    </g>
</svg>